<svg width="78" height="78" viewBox="0 0 78 78" fill="none" xmlns="http://www.w3.org/2000/svg">
<ellipse cx="39" cy="38.8287" rx="39" ry="38.8287" fill="url(#paint0_linear_1129_3288)" fill-opacity="0.25"/>
<path d="M16.4692 34.3106C14.5586 34.3106 13 32.752 13 30.8415C13 28.9309 14.5586 27.3723 16.4692 27.3723C18.3797 27.3723 19.9383 28.9309 19.9383 30.8415C19.9635 32.752 18.4049 34.3106 16.4692 34.3106ZM16.4692 29.308C15.6144 29.308 14.9106 30.0119 14.9106 30.8666C14.9106 31.7213 15.6144 32.4252 16.4692 32.4252C17.3239 32.4252 18.0278 31.7213 18.0278 30.8666C18.0278 29.9868 17.3239 29.308 16.4692 29.308Z" fill="#6B09EB"/>
<path d="M56.7895 52.8126C54.8789 52.8126 53.3203 51.254 53.3203 49.3434C53.3203 47.4329 54.8789 45.8743 56.7895 45.8743C58.7 45.8743 60.2586 47.4329 60.2586 49.3434C60.2586 51.254 58.7 52.8126 56.7895 52.8126ZM56.7895 47.7848C55.9348 47.7848 55.2309 48.4887 55.2309 49.3434C55.2309 50.1982 55.9348 50.902 56.7895 50.902C57.6442 50.902 58.3481 50.1982 58.3481 49.3434C58.3229 48.4887 57.6442 47.7848 56.7895 47.7848Z" fill="#6B09EB"/>
<path d="M39.2126 54.9999C38.7853 54.9999 38.3579 54.8491 38.0311 54.5223L22.5456 39.0367C21.9171 38.3831 21.9171 37.3524 22.5456 36.6988C22.8472 36.372 23.2746 36.196 23.7271 36.196C24.1796 36.196 24.607 36.3469 24.9086 36.6737L39.2126 50.9777L53.7932 36.3972H53.8937C54.5222 36.0704 55.3015 36.1458 55.8294 36.6737C56.1562 36.9754 56.3322 37.4027 56.3322 37.8552C56.3322 38.3077 56.1814 38.7099 55.8546 39.0367L40.369 54.5223C40.0674 54.8239 39.64 54.9999 39.2126 54.9999Z" fill="url(#paint1_linear_1129_3288)"/>
<path d="M39.2126 42.3298C38.7853 42.3298 38.3579 42.179 38.0311 41.8521L22.5456 26.3917C21.9171 25.7381 21.9171 24.7074 22.5456 24.0538C23.174 23.4002 24.2299 23.3751 24.9086 24.0036L39.2126 38.3076L53.7932 23.727H53.8937C54.5473 23.3751 55.3769 23.4756 55.9048 24.0287C56.5333 24.6823 56.5333 25.7381 55.8546 26.3917L40.3942 41.8521C40.0674 42.179 39.64 42.3298 39.2126 42.3298Z" fill="url(#paint2_linear_1129_3288)"/>
<path d="M39.2189 54.9997C38.7664 54.9997 38.3642 54.8238 38.0374 54.5221L22.5519 39.0365C22.2251 38.7097 22.0742 38.2824 22.0742 37.8299C22.0742 37.3774 22.2502 36.9752 22.577 36.6484C23.2306 36.0199 24.2362 36.0199 24.8898 36.6484L39.1938 50.9524L53.4727 36.6735C53.7995 36.3467 54.2017 36.1959 54.6793 36.1959C55.1318 36.1959 55.534 36.3718 55.8608 36.6986C56.4893 37.3522 56.4893 38.3578 55.8608 39.0114L40.3753 54.4969C40.0736 54.8238 39.6463 54.9997 39.2189 54.9997Z" fill="#6B09EB"/>
<path d="M39.2189 42.3298C38.7664 42.3298 38.3642 42.1538 38.0374 41.8522L22.5519 26.3918C22.2502 26.0398 22.0742 25.6376 22.0742 25.1851C22.0742 24.7326 22.2502 24.3304 22.577 24.0036C23.2306 23.3751 24.2362 23.3751 24.8898 24.0036L39.1938 38.3076L53.4727 24.0287C54.1011 23.3751 55.157 23.3751 55.8106 24.0036C56.1374 24.3052 56.3134 24.7326 56.3134 25.1851C56.3134 25.6376 56.1625 26.0398 55.8357 26.3666L40.3502 41.8773C40.0736 42.1538 39.6463 42.3298 39.2189 42.3298ZM54.8804 25.3862C54.8553 25.3862 54.8804 25.3862 54.8804 25.3862V25.3862Z" fill="url(#paint3_linear_1129_3288)"/>
<defs>
<linearGradient id="paint0_linear_1129_3288" x1="1.51313e-06" y1="-5.20384" x2="95.3888" y2="43.8295" gradientUnits="userSpaceOnUse">
<stop stop-color="#6200EE" stop-opacity="0.46"/>
<stop offset="0.341634" stop-color="#6200EE" stop-opacity="0.46"/>
<stop offset="0.994792" stop-color="white"/>
</linearGradient>
<linearGradient id="paint1_linear_1129_3288" x1="57.3018" y1="45.598" x2="31.1855" y2="62.6852" gradientUnits="userSpaceOnUse">
<stop stop-color="#FF6CDF"/>
<stop offset="0.989653" stop-color="#EB0CE2"/>
</linearGradient>
<linearGradient id="paint2_linear_1129_3288" x1="57.3407" y1="32.9258" x2="31.2094" y2="50.0379" gradientUnits="userSpaceOnUse">
<stop stop-color="#FF6CDF"/>
<stop offset="0.989653" stop-color="#EB0CE2"/>
</linearGradient>
<linearGradient id="paint3_linear_1129_3288" x1="57.2824" y1="32.931" x2="31.1771" y2="50.0073" gradientUnits="userSpaceOnUse">
<stop stop-color="#FF6CDF"/>
<stop offset="0.989653" stop-color="#EB0CE2"/>
</linearGradient>
</defs>
</svg>
